<svg width="130" height="130" viewBox="0 0 130 130" fill="none" xmlns="http://www.w3.org/2000/svg">
<circle cx="65" cy="65" r="65" fill="#5FAB00"/>
<path d="M52.7189 47.734H66.0329V55H73.2989V47.734H76.8689V41.644H73.2989V24.97H64.3109L52.7189 43.282V47.734ZM60.1949 41.644V41.56L64.7309 34.672C65.5709 33.412 66.2009 31.564 66.2009 31.564H66.2849C66.2849 31.564 66.0329 33.286 66.0329 34.924V41.644H60.1949Z" fill="#FFDA35"/>
<path d="M16.7766 74H19.2266V69.94H20.2346L22.3486 74H25.0926L22.2366 68.806V68.778L24.9386 63.99H22.3066L20.2346 67.854H19.2266V63.99H16.7766V74ZM25.377 68.932C25.377 71.872 27.589 74.168 30.613 74.168C33.637 74.168 35.849 71.872 35.849 68.932C35.849 66.062 33.637 63.822 30.613 63.822C27.589 63.822 25.377 66.062 25.377 68.932ZM27.911 68.932C27.911 67.294 29.115 66.062 30.613 66.062C32.111 66.062 33.315 67.294 33.315 68.932C33.315 70.64 32.111 71.928 30.613 71.928C29.115 71.928 27.911 70.64 27.911 68.932ZM37.4074 74H39.8574V70.08H43.4974V74H45.9474V63.99H43.4974V67.994H39.8574V63.99H37.4074V74ZM50.2141 74H52.6641V66.09H55.7021V63.99H47.1761V66.09H50.2141V74ZM56.9309 74H63.3989V71.9H59.3809V70.01H62.4329V67.91H59.3809V66.09H63.2029V63.99H56.9309V74ZM69.3653 63.542C70.7793 63.542 72.0113 62.772 72.0113 61.4V61.246H70.2333V61.414C70.2333 61.988 69.7713 62.24 69.3653 62.24C68.9453 62.24 68.4973 61.988 68.4973 61.414V61.246H66.7053V61.4C66.7053 62.772 67.9373 63.542 69.3653 63.542ZM64.9973 74H67.4613L70.2473 69.338C70.6393 68.68 71.0873 67.63 71.0873 67.63H71.1153C71.1153 67.63 71.0033 68.708 71.0033 69.338V74H73.4533V63.99H70.9753L68.2033 68.666C67.8113 69.324 67.3633 70.374 67.3633 70.374H67.3353C67.3353 70.374 67.4473 69.296 67.4473 68.666V63.99H64.9973V74ZM75.552 74H78.002V70.08H81.642V74H84.092V63.99H81.642V67.994H78.002V63.99H75.552V74ZM86.1887 74H92.6567V71.9H88.6387V70.01H91.6907V67.91H88.6387V66.09H92.4607V63.99H86.1887V74ZM94.2551 74H96.7051V70.906H98.4131C100.359 70.906 101.675 69.45 101.675 67.434C101.675 65.418 100.359 63.99 98.4131 63.99H94.2551V74ZM96.7051 68.806V66.09H97.9511C98.7631 66.09 99.1831 66.636 99.1831 67.434C99.1831 68.232 98.7631 68.806 97.9091 68.806H96.7051ZM101.435 74H103.955L104.557 71.9H107.679L108.295 74H110.815L107.413 63.99H104.837L101.435 74ZM105.131 69.94L105.705 67.994C105.887 67.364 106.111 66.272 106.111 66.272H106.139C106.139 66.272 106.363 67.364 106.545 67.994L107.105 69.94H105.131ZM21.5697 94H26.3037C28.8597 94 31.1997 92.974 31.1997 90.166C31.1997 89.032 30.6597 87.718 29.1837 87.268V87.232C30.1557 86.674 30.6777 85.576 30.6777 84.496C30.6777 82.282 28.8777 81.13 26.3037 81.13H21.5697V94ZM24.7197 86.116V83.83H26.2857C27.1317 83.83 27.4737 84.334 27.4737 84.928C27.4737 85.54 27.1317 86.116 26.3397 86.116H24.7197ZM24.7197 91.3V88.636H26.6277C27.5457 88.636 27.9777 89.23 27.9777 89.95C27.9777 90.67 27.5277 91.3 26.6097 91.3H24.7197ZM37.724 94H40.874V88.96H45.554V94H48.704V81.13H45.554V86.278H40.874V81.13H37.724V94ZM49.9958 94H53.2358L54.0098 91.3H58.0238L58.8158 94H62.0558L57.6818 81.13H54.3698L49.9958 94ZM54.7478 88.78L55.4858 86.278C55.7198 85.468 56.0078 84.064 56.0078 84.064H56.0438C56.0438 84.064 56.3318 85.468 56.5658 86.278L57.2858 88.78H54.7478ZM63.3529 94H68.6989C71.2009 94 72.8929 92.308 72.8929 89.932C72.8929 87.556 71.2009 85.828 68.6989 85.828H66.5029V83.83H71.7229V81.13H63.3529V94ZM66.5029 91.3V88.528H68.0509C69.1489 88.528 69.6889 89.122 69.6889 89.932C69.6889 90.742 69.1489 91.3 68.1049 91.3H66.5029ZM74.0416 87.484C74.0416 91.264 76.8856 94.216 80.7736 94.216C84.6616 94.216 87.5056 91.264 87.5056 87.484C87.5056 83.794 84.6616 80.914 80.7736 80.914C76.8856 80.914 74.0416 83.794 74.0416 87.484ZM77.2996 87.484C77.2996 85.378 78.8476 83.794 80.7736 83.794C82.6996 83.794 84.2476 85.378 84.2476 87.484C84.2476 89.68 82.6996 91.336 80.7736 91.336C78.8476 91.336 77.2996 89.68 77.2996 87.484ZM89.5092 94H92.6592V90.022H94.8552C97.3572 90.022 99.0492 88.15 99.0492 85.558C99.0492 82.966 97.3572 81.13 94.8552 81.13H89.5092V94ZM92.6592 87.322V83.83H94.2612C95.3052 83.83 95.8452 84.532 95.8452 85.558C95.8452 86.584 95.3052 87.322 94.2072 87.322H92.6592ZM100.759 94H109.075V91.3H103.909V88.87H107.833V86.17H103.909V83.83H108.823V81.13H100.759V94Z" fill="white"/>
</svg>
