<svg width="19" height="16" viewBox="0 0 19 16" fill="none" xmlns="http://www.w3.org/2000/svg">
<path d="M18.5014 12.1266L14.6558 10.0049C14.1677 9.73782 13.5136 9.82571 13.1528 10.2069L12.0326 11.3984C11.8886 11.5555 11.6269 11.601 11.4186 11.5053L11.2055 11.4081C10.4992 11.0896 9.62024 10.693 7.84939 9.22747C6.07853 7.76191 5.59822 7.03422 5.21319 6.4509L5.09635 6.27461C4.97907 6.10235 5.03309 5.88492 5.22299 5.76487L6.66232 4.8384C7.12286 4.53988 7.22923 3.99883 6.90676 3.59495L4.34214 0.413413C4.01166 0.00214484 3.34861 -0.121315 2.83699 0.133126L1.22887 0.932302C0.723588 1.17806 0.352883 1.57606 0.194487 2.04292C-0.384594 3.78849 0.0510427 6.80108 5.41522 11.2394C9.68232 14.7693 12.859 15.7186 15.0424 15.7186C15.5449 15.7204 16.0454 15.6663 16.5305 15.5578C17.0949 15.4269 17.5761 15.1202 17.873 14.702L18.8399 13.3724C19.1479 12.9491 18.9988 12.4002 18.5014 12.1266ZM18.2943 13.1037L17.3296 14.4341C17.1165 14.7359 16.7704 14.9578 16.3639 15.0533C14.4161 15.4957 11.013 15.1293 5.86322 10.8688C0.713384 6.60831 0.270475 3.79322 0.805253 2.18152C0.920869 1.84484 1.18943 1.55817 1.55468 1.38154L3.1628 0.583409C3.38479 0.472902 3.67257 0.526467 3.81597 0.704935L5.20911 2.43531L6.3784 3.8862C6.51843 4.06138 6.47242 4.29618 6.27266 4.42581L4.83299 5.35228C4.39487 5.62944 4.26975 6.13092 4.5395 6.52893L4.65382 6.70077C5.05847 7.31476 5.56156 8.07857 7.39828 9.59785C9.23499 11.1171 10.158 11.5333 10.8998 11.8681L11.1078 11.9629C11.5888 12.186 12.195 12.0826 12.53 11.7201L13.6499 10.529C13.8066 10.3639 14.0903 10.3258 14.3022 10.4416L18.1475 12.5633C18.3634 12.6818 18.4281 12.92 18.2943 13.1037Z" fill="#0D0D0D"/>
<path d="M10.7661 2.62152C13.7374 2.62425 16.1453 4.61634 16.1486 7.07453C16.1486 7.2192 16.2904 7.33646 16.4652 7.33646C16.6401 7.33646 16.7818 7.2192 16.7818 7.07453C16.7782 4.32712 14.087 2.10066 10.7661 2.09766C10.5912 2.09766 10.4495 2.21492 10.4495 2.35959C10.4495 2.50426 10.5912 2.62152 10.7661 2.62152Z" fill="#0D0D0D"/>
<path d="M10.7661 4.19281C12.6886 4.19468 14.2466 5.48361 14.2489 7.07417C14.2489 7.21884 14.3907 7.3361 14.5655 7.3361C14.7404 7.3361 14.8821 7.21884 14.8821 7.07417C14.8795 5.19439 13.0382 3.67109 10.7661 3.66895C10.5912 3.66895 10.4495 3.78621 10.4495 3.93088C10.4495 4.07555 10.5912 4.19281 10.7661 4.19281Z" fill="#0D0D0D"/>
<path d="M10.7661 5.7641C11.6399 5.76496 12.3481 6.35082 12.3492 7.07381C12.3492 7.21848 12.491 7.33574 12.6658 7.33574C12.8406 7.33574 12.9824 7.21848 12.9824 7.07381C12.981 6.06163 11.9895 5.24137 10.7661 5.24023C10.5912 5.24023 10.4495 5.35749 10.4495 5.50217C10.4495 5.64684 10.5912 5.7641 10.7661 5.7641Z" fill="#0D0D0D"/>
</svg>
