<svg width="128" height="108" viewBox="0 0 128 108" fill="none" xmlns="http://www.w3.org/2000/svg">
<path d="M114.447 56.2899C114.3 83.7754 91.9615 106.054 64.5542 106.054C37.1468 106.054 15.045 83.7754 15.1914 56.2899C15.3377 28.8044 37.6767 6.52538 65.084 6.52538C92.4914 6.52538 114.593 28.8044 114.447 56.2899Z" fill="white" stroke="url(#paint0_linear)"/>
<path d="M45.6766 90.3896C64.5144 100.959 88.3558 94.2599 98.9278 75.4271C109.5 56.5943 102.799 32.7593 83.9614 22.19C65.1236 11.6208 41.2822 18.3197 30.7101 37.1525C20.1381 55.9853 26.8388 79.8203 45.6766 90.3896Z" fill="url(#paint1_linear)"/>
<path d="M89.319 46.9317C89.9446 46.9537 90.4378 47.1588 90.7991 47.5467C91.161 47.9344 91.3154 48.4409 91.2631 49.0662L91.2174 49.5314C91.1505 50.1888 90.8947 50.71 90.4496 51.0952C90.005 51.4757 89.4492 51.6544 88.7824 51.6314C88.1666 51.6093 87.6754 51.4045 87.3091 51.0166C86.9433 50.624 86.7815 50.122 86.8238 49.5106L86.8782 48.9897C86.949 48.3557 87.209 47.8485 87.6586 47.4681C88.1082 47.0876 88.6615 46.9089 89.319 46.9317ZM88.297 49.5547C88.268 49.8 88.2999 49.9979 88.3938 50.1483C88.4924 50.294 88.6388 50.369 88.8333 50.373C89.0419 50.3865 89.2261 50.3208 89.3873 50.1757C89.5533 50.0305 89.6622 49.8287 89.715 49.57L89.8044 49.0291C89.8635 48.4968 89.687 48.2172 89.2749 48.1903C89.0669 48.1766 88.8773 48.247 88.7071 48.4011C88.5363 48.5554 88.4274 48.7572 88.3793 49.0068L88.297 49.5547ZM92.8586 52.7032C93.4837 52.7255 93.9795 52.933 94.3452 53.3254C94.7115 53.7134 94.8685 54.2179 94.8165 54.8383L94.7618 55.3728C94.6816 56.0252 94.4144 56.5372 93.9601 56.9082C93.5114 57.2793 92.9672 57.4488 92.3281 57.4172C91.7218 57.3955 91.233 57.1927 90.8618 56.8093C90.4913 56.4214 90.3273 55.9121 90.3702 55.2821L90.4248 54.7409C90.472 54.3245 90.6061 53.9581 90.8267 53.643C91.052 53.3227 91.3384 53.0824 91.6855 52.9229C92.0367 52.7628 92.4276 52.6898 92.8586 52.7032ZM91.8358 55.3401C91.8211 55.5626 91.8607 55.7514 91.9542 55.9065C92.0481 56.0571 92.1897 56.1388 92.3795 56.1521C92.8794 56.1805 93.1809 55.8806 93.2843 55.2521L93.3576 54.7944C93.3863 54.5584 93.3563 54.3648 93.2668 54.2147C93.1779 54.0644 93.0295 53.9823 92.821 53.9691C92.6038 53.9555 92.4099 54.0303 92.2387 54.1936C92.068 54.3524 91.9614 54.5475 91.9189 54.7785L91.8358 55.3401ZM88.1668 56.4131L87.1111 55.7857L93.4004 48.0873L94.4495 48.7072L88.1668 56.4131Z" fill="white"/>
<path d="M47.127 61.4141L50.6777 48.4062H65.2676L64.5293 53.0117H54.7383L53.1738 58.127C54.123 57.5176 55.3008 57.2012 56.707 57.1777C58.957 57.1777 60.6855 57.957 61.8926 59.5156C63.1113 61.0742 63.6152 63.1133 63.4043 65.6328C63.1934 68.2344 62.1797 70.3555 60.3633 71.9961C58.5469 73.625 56.3496 74.416 53.7715 74.3691C52.2598 74.334 50.8828 73.9824 49.6406 73.3145C48.4102 72.6465 47.4551 71.7383 46.7754 70.5898C46.0957 69.4297 45.7617 68.1348 45.7734 66.7051H51.5391C51.5625 67.6191 51.791 68.3516 52.2246 68.9023C52.6582 69.4531 53.2676 69.7402 54.0527 69.7637C55.0137 69.7988 55.8105 69.4414 56.4434 68.6914C57.0762 67.9297 57.4805 66.7754 57.6562 65.2285C57.7734 63.9277 57.5977 62.9434 57.1289 62.2754C56.6602 61.5957 55.9277 61.2559 54.9316 61.2559C53.6543 61.2559 52.6172 61.6895 51.8203 62.5566L47.127 61.4141ZM72.8789 58.7246L75.4629 58.7422C76.5176 58.7187 77.3848 58.4141 78.0645 57.8281C78.7441 57.2305 79.1484 56.3984 79.2773 55.332C79.3711 54.5352 79.2129 53.8789 78.8027 53.3633C78.3926 52.8477 77.7773 52.584 76.957 52.5723C76.1953 52.5488 75.5215 52.7598 74.9355 53.2051C74.3496 53.6504 73.9746 54.2422 73.8105 54.9805L68.0098 55.0156C68.0801 53.6328 68.5254 52.4082 69.3457 51.3418C70.166 50.2754 71.2559 49.4551 72.6152 48.8809C73.9863 48.2949 75.457 48.0078 77.0273 48.0195C79.6055 48.0781 81.6328 48.7578 83.1094 50.0586C84.5859 51.3477 85.2598 53.0703 85.1309 55.2266C84.9785 57.6406 83.4023 59.5508 80.4023 60.957C81.5391 61.5195 82.3887 62.2988 82.9512 63.2949C83.5137 64.291 83.7656 65.416 83.707 66.6699C83.625 68.2402 83.127 69.6113 82.2129 70.7832C81.2988 71.9434 80.0742 72.8398 78.5391 73.4727C77.0039 74.0937 75.3574 74.3867 73.5996 74.3516C72.0645 74.3398 70.6699 74.0176 69.416 73.3848C68.1738 72.7402 67.2187 71.8555 66.5508 70.7305C65.8828 69.6055 65.5547 68.3164 65.5664 66.8633H71.332C71.3437 67.6953 71.5898 68.3809 72.0703 68.9199C72.5508 69.459 73.2246 69.7402 74.0918 69.7637C75.0645 69.7871 75.9258 69.5 76.6758 68.9023C77.4258 68.3047 77.8711 67.5195 78.0117 66.5469C78.1523 65.5039 77.9941 64.6895 77.5371 64.1035C77.0918 63.5059 76.3418 63.1895 75.2871 63.1543L72.1934 63.1367L72.8789 58.7246Z" fill="white"/>
<path d="M53.3957 41.7459C53.332 42.2116 53.163 42.6225 52.8887 42.9787C52.6145 43.3318 52.262 43.6014 51.8311 43.7873C51.4003 43.9702 50.9379 44.0519 50.444 44.0324C49.9995 44.014 49.6143 43.904 49.2885 43.7025C48.9628 43.4979 48.7087 43.2081 48.5261 42.8332C48.3467 42.4554 48.2505 42.0235 48.2374 41.5377C48.2249 41.157 48.2749 40.6849 48.3873 40.1213C48.5028 39.5577 48.6939 39.0591 48.9608 38.6254C49.2308 38.1918 49.5465 37.8504 49.9078 37.6012C50.4167 37.2529 50.9922 37.0916 51.6343 37.1172C52.332 37.1439 52.8797 37.3716 53.2772 37.8004C53.678 38.2262 53.8895 38.8119 53.9118 39.5578L52.5591 39.5252C52.5694 39.0987 52.4919 38.7848 52.3268 38.5834C52.1617 38.3821 51.9002 38.2715 51.5422 38.2518C51.0793 38.2268 50.6939 38.3843 50.386 38.7244C50.0812 39.0644 49.8699 39.5657 49.752 40.2282C49.6377 40.8722 49.5828 41.3551 49.5875 41.6768C49.5931 42.0852 49.677 42.3884 49.839 42.5866C50.0013 42.7817 50.232 42.8869 50.5314 42.9024C50.9448 42.9263 51.2776 42.8358 51.5298 42.6307C51.7851 42.4225 51.9576 42.1215 52.0474 41.7274L53.3957 41.7459ZM56.6366 41.3071L55.826 41.2904L55.2781 44.0392L53.9207 44.0113L55.2549 37.2845L56.6123 37.3124L56.0748 40.0058L56.6398 40.0175L58.7759 37.3569L60.5175 37.3928L57.808 40.6028L59.327 44.1226L57.775 44.0906L56.6366 41.3071ZM65.1178 37.4876L66.5264 37.5165L65.1919 44.2433L63.8301 44.2152L64.6996 39.8356L61.2636 44.1624L59.8595 44.1336L61.194 37.4068L62.5514 37.4347L61.6814 41.8191L65.1178 37.4876ZM72.2588 46.0495L70.9986 46.0236L71.3255 44.3696L67.3923 44.2887L67.0653 45.938L65.7821 45.9116L66.2568 43.1471L66.6824 43.1653C67.2941 42.7882 67.7449 42.0924 68.0348 41.0778L68.1416 40.695L68.9538 37.5665L73.2574 37.6551L72.1448 43.2684L72.9136 43.2843L72.2588 46.0495ZM68.2803 43.2122L70.7873 43.2405L71.6783 38.7499L70.034 38.7159L69.4361 41.014C69.1631 41.9731 68.7778 42.7058 68.2803 43.2122ZM76.1586 41.709L75.348 41.6923L74.7998 44.4412L73.443 44.4131L74.7769 37.6864L76.1343 37.7143L75.5969 40.4078L76.1618 40.4194L78.2979 37.7588L80.0395 37.7948L77.33 41.0047L78.849 44.5245L77.297 44.4925L76.1586 41.709ZM83.4269 43.2271L81.0737 43.1786L80.3454 44.5553L78.849 44.5245L82.6153 37.8478L83.871 37.8736L84.992 44.6509L83.6065 44.6225L83.4269 43.2271ZM81.6564 42.0635L83.2825 42.0969L82.9631 39.576L81.6564 42.0635Z" fill="white"/>
<path d="M101.358 0.658595L98.7628 8.50127L103.646 1.66965L101.358 0.658595Z" fill="#E70421"/>
<path d="M110.493 6.40037L100.598 11.8066L110.961 10.065L110.493 6.40037Z" fill="#E70421"/>
<path d="M24.2481 107.729L30.9263 99.4487L22.1245 104.243L24.2481 107.729Z" fill="#E70421"/>
<rect x="33.2561" y="59.9141" width="8.72519" height="3.90123" fill="white"/>
<defs>
<linearGradient id="paint0_linear" x1="65.0867" y1="6.02539" x2="65.0867" y2="106.554" gradientUnits="userSpaceOnUse">
<stop stop-color="#EC0424"/>
<stop offset="1" stop-color="#EB0220"/>
</linearGradient>
<linearGradient id="paint1_linear" x1="83.9614" y1="22.19" x2="45.6922" y2="90.3981" gradientUnits="userSpaceOnUse">
<stop stop-color="#EC0424"/>
<stop offset="1" stop-color="#EB0220"/>
</linearGradient>
</defs>
</svg>
