<svg width="19" height="19" viewBox="0 0 19 19" fill="none" xmlns="http://www.w3.org/2000/svg">
<path d="M18.9998 14.9818L12.2124 8.78715C12.1916 7.77996 11.8449 4.58699 8.28683 3.32073C7.46219 3.02724 4.82259 2.7094 4.36562 2.64821C1.59678 2.27729 1.08994 0 1.08994 0C1.08994 0 -1.27498 4.83147 0.961517 9.14788C2.93042 12.9477 6.53654 13.388 7.77596 13.427L15.4642 19L18.9998 14.9818ZM1.66545 8.77711C0.505788 6.84977 0.649141 4.07387 1.25435 1.94521C2.08826 2.87835 3.40643 3.25835 4.2137 3.40891C4.69525 3.49871 7.29623 3.7423 8.01668 4.05041C11.1832 5.40449 11.4206 8.00757 11.4168 8.82724L8.05081 12.6526C7.1732 12.6298 3.7981 12.3216 1.66545 8.77711ZM8.69048 13.1215L11.8542 9.52571L13.2797 10.8268L10.26 14.2592L8.69048 13.1215ZM10.9024 14.7248L13.8631 11.3594L17.8957 15.04L15.342 17.9431L10.9024 14.7248Z" fill="#0D0D0D"/>
</svg>
