<svg width="19" height="19" viewBox="0 0 19 19" fill="none" xmlns="http://www.w3.org/2000/svg">
<path d="M16.2718 13.1237L12.6597 11.6622C12.319 11.5242 12.1073 11.247 12.1073 10.9386V9.90401C12.1939 9.81834 12.285 9.72072 12.3792 9.61302C12.8476 9.07753 13.2231 8.48146 13.4961 7.83857C14.0296 7.6406 14.376 7.21374 14.376 6.7318V5.50784C14.376 5.21317 14.2398 4.92768 13.9979 4.70461V3.07705C14.019 2.90875 14.1022 1.90694 13.2068 1.08045C12.4302 0.363517 11.17 0 9.4605 0C7.75106 0 6.49081 0.363517 5.71417 1.08015C4.81879 1.90663 4.90198 2.90875 4.92315 3.07705V4.70461C4.68116 4.92768 4.54504 5.21317 4.54504 5.50784V6.7318C4.54504 7.10419 4.75414 7.45149 5.11108 7.68313C5.45743 8.79296 6.18227 9.62923 6.4356 9.89759V10.9101C6.4356 11.2063 6.23596 11.478 5.91494 11.62L2.5418 13.109C1.4449 13.5933 0.763916 14.5217 0.763916 15.5327V16.5235C0.763916 17.9757 6.45262 18.3595 9.4605 18.3595C12.4684 18.3595 18.1571 17.9757 18.1571 16.5235V15.5924C18.1571 14.5404 17.4345 13.5943 16.2718 13.1237ZM17.4009 16.5235C17.4009 16.9387 14.5983 17.7475 9.4605 17.7475C4.32271 17.7475 1.52014 16.9387 1.52014 16.5235V15.5327C1.52014 14.746 2.05026 14.023 2.90366 13.6466L6.2768 12.1576C6.84132 11.9083 7.19183 11.43 7.19183 10.9101V9.68033L7.10373 9.59527C7.09465 9.58639 6.1679 8.67913 5.81437 7.43344L5.77996 7.31227L5.65102 7.24495C5.43209 7.13051 5.30127 6.93865 5.30127 6.7318V5.50784C5.30127 5.33618 5.39126 5.17614 5.5546 5.0565L5.67938 4.96562V3.05991L5.67598 3.01983C5.67484 3.01156 5.54628 2.16336 6.28285 1.48344C6.90938 0.905122 7.97868 0.611982 9.4605 0.611982C10.937 0.611982 12.0041 0.90298 12.6314 1.47732C13.3675 2.15081 13.2458 3.01248 13.245 3.01983L13.2416 4.96562L13.3664 5.05681C13.5298 5.17614 13.6197 5.33618 13.6197 5.50784V6.7318C13.6197 6.99893 13.4035 7.23271 13.0821 7.31288L12.8938 7.3597L12.8333 7.51116C12.5803 8.14793 12.22 8.73604 11.7617 9.25929C11.6494 9.38811 11.5401 9.50225 11.4452 9.58945L11.3511 9.67635V10.9386C11.3511 11.4802 11.7228 11.967 12.3213 12.2093L15.9334 13.6708C16.8386 14.037 17.4009 14.7732 17.4009 15.5924V16.5235Z" fill="#0D0D0D"/>
</svg>
