<svg width="199" height="202" viewBox="0 0 199 202" fill="none" xmlns="http://www.w3.org/2000/svg">
<path d="M21.0787 119.128L49.7761 123.767L171.584 108.417C163.491 145.62 133.628 164.098 112.455 169.356C91.2811 174.613 42.7791 172.078 21.0787 119.128Z" fill="url(#paint0_linear)"/>
<circle cx="108.022" cy="92.3196" r="65.9073" transform="rotate(71.1903 108.022 92.3196)" fill="url(#paint1_linear)"/>
<path d="M185.816 126.533L172.384 130.132L186.502 130.697L185.816 126.533Z" fill="#E70421"/>
<path d="M186.155 144.741L169.423 135.782L181.428 148.794L186.155 144.741Z" fill="#E70421"/>
<path d="M24.3074 98.4839L39.5074 107.965L29.691 94.2071L24.3074 98.4839Z" fill="#E70421"/>
<path d="M85.9128 24.7311C116.256 12.6855 158.188 28.2074 171.417 60.5907" stroke="#EC0322" stroke-width="3"/>
<path d="M22.5117 136.962C46.6736 174.905 87.5331 182.975 119.358 173.845" stroke="#EC0221" stroke-width="3"/>
<path d="M152.085 84.3543C153.091 84.6715 153.801 85.2266 154.216 86.0195C154.631 86.8124 154.658 87.7051 154.296 88.6977L154.015 89.4331C153.614 90.4713 152.967 91.2032 152.073 91.6289C151.181 92.0471 150.199 92.0875 149.126 91.75C148.135 91.4372 147.428 90.8832 147.005 90.0881C146.585 89.2855 146.545 88.3969 146.885 87.4224L147.205 86.6005C147.601 85.602 148.249 84.8947 149.148 84.4788C150.048 84.0628 151.026 84.0213 152.085 84.3543ZM149.259 88.157C149.103 88.5424 149.067 88.8785 149.153 89.165C149.248 89.4463 149.453 89.634 149.767 89.728C150.1 89.8438 150.429 89.8199 150.755 89.6566C151.089 89.4954 151.356 89.2165 151.556 88.8198L151.941 87.981C152.274 87.1427 152.111 86.6089 151.454 86.3796C151.122 86.2639 150.783 86.2929 150.437 86.4668C150.092 86.6407 149.825 86.9196 149.637 87.3036L149.259 88.157ZM155.273 95.3261C156.279 95.6434 156.992 96.2034 157.412 97.006C157.835 97.8011 157.866 98.6912 157.506 99.6763L157.18 100.521C156.76 101.545 156.098 102.256 155.196 102.655C154.301 103.056 153.342 103.087 152.318 102.748C151.342 102.439 150.638 101.89 150.206 101.1C149.776 100.303 149.735 99.4021 150.085 98.3976L150.414 97.5421C150.675 96.8864 151.056 96.3518 151.554 95.9384C152.063 95.5197 152.634 95.2585 153.269 95.1548C153.911 95.0533 154.579 95.1104 155.273 95.3261ZM152.44 99.1513C152.318 99.5061 152.298 99.8305 152.381 100.125C152.467 100.411 152.661 100.608 152.963 100.714C153.763 100.986 154.386 100.634 154.832 99.6591L155.155 98.9484C155.307 98.5779 155.344 98.2505 155.266 97.9662C155.188 97.6819 154.982 97.4818 154.65 97.3661C154.303 97.2459 153.954 97.2802 153.604 97.469C153.256 97.6504 152.996 97.9192 152.824 98.2755L152.44 99.1513ZM146.003 99.2436L144.566 97.7495L158.203 88.0685L159.631 89.5479L146.003 99.2436Z" fill="white"/>
<path d="M75.4849 90.8527L87.765 71.1433L111.838 78.3458L108.346 85.5802L92.1912 80.7467L87.0847 88.4142C88.9517 87.8774 91.0511 87.9367 93.3829 88.5923C97.0953 89.703 99.5625 91.8422 100.785 95.0096C102.026 98.1829 101.851 101.796 100.259 105.849C98.6267 110.037 95.9071 113.037 92.1002 114.847C88.2991 116.638 84.2832 116.858 80.0526 115.508C77.5756 114.704 75.4773 113.444 73.7575 111.729C72.057 110.019 70.9296 108.049 70.375 105.819C69.8263 103.569 69.9145 101.268 70.6396 98.9144L80.1527 101.761C79.7401 103.28 79.7556 104.602 80.1991 105.725C80.6426 106.847 81.5063 107.622 82.7902 108.048C84.3583 108.581 85.8496 108.384 87.2639 107.459C88.6841 106.515 89.921 104.81 90.9747 102.344C91.8102 100.256 92.0061 98.545 91.5624 97.2114C91.1245 95.8586 90.0839 94.9363 88.4403 94.4445C86.3328 93.814 84.4076 94.0174 82.6646 95.0548L75.4849 90.8527ZM119.302 99.1281L123.557 100.433C125.309 100.915 126.89 100.84 128.301 100.209C129.717 99.5583 130.795 98.3851 131.534 96.6892C132.082 95.4207 132.145 94.2598 131.723 93.2065C131.301 92.1533 130.416 91.4145 129.068 90.9902C127.823 90.5755 126.607 90.5909 125.42 91.0364C124.234 91.4819 123.323 92.2732 122.688 93.4103L113.099 90.6047C113.898 88.3578 115.237 86.5571 117.117 85.2026C118.997 83.848 121.2 83.0325 123.727 82.7562C126.278 82.4663 128.846 82.7186 131.432 83.5132C135.656 84.8826 138.666 87.0048 140.46 89.88C142.26 92.7358 142.521 95.9108 141.244 99.4048C139.801 103.313 136.257 105.686 130.613 106.526C132.211 108.015 133.228 109.72 133.665 111.641C134.101 113.562 133.961 115.543 133.246 117.583C132.335 120.133 130.836 122.15 128.75 123.632C126.669 125.095 124.206 125.97 121.36 126.256C118.521 126.523 115.66 126.193 112.777 125.268C110.25 124.49 108.108 123.27 106.351 121.607C104.62 119.93 103.481 117.999 102.934 115.813C102.387 113.627 102.482 111.338 103.219 108.947L112.732 111.793C112.341 113.171 112.408 114.424 112.935 115.551C113.461 116.677 114.434 117.474 115.854 117.941C117.447 118.46 119.01 118.411 120.542 117.795C122.075 117.179 123.197 116.104 123.909 114.568C124.656 112.917 124.797 111.495 124.332 110.303C123.893 109.097 122.812 108.204 121.089 107.626L115.993 106.069L119.302 99.1281Z" fill="white"/>
<rect width="9.81686" height="4.86215" transform="matrix(0.935464 0.353422 -0.365805 0.930692 62.3752 79.8259)" fill="white"/>
<path d="M96.2134 59.8701C95.9032 60.5982 95.4461 61.1899 94.8423 61.6454C94.24 62.0958 93.5476 62.3752 92.7649 62.4835C91.9838 62.5868 91.1963 62.5116 90.4024 62.2577C89.6883 62.0278 89.1114 61.6758 88.6715 61.2017C88.2332 60.7226 87.9489 60.1373 87.8187 59.446C87.6949 58.7512 87.7303 58.0061 87.9248 57.2108C88.0735 56.5866 88.3643 55.8418 88.7972 54.9764C89.235 54.1126 89.767 53.3883 90.3932 52.8037C91.0243 52.2206 91.6888 51.8078 92.3865 51.5653C93.368 51.2283 94.3747 51.2251 95.4066 51.5556C96.5284 51.913 97.317 52.5295 97.7726 53.4052C98.2347 54.2773 98.3183 55.3244 98.0234 56.5463L95.8401 55.8849C96.0461 55.1964 96.0597 54.6513 95.8808 54.2499C95.7019 53.8484 95.326 53.5511 94.7532 53.358C94.0122 53.1091 93.3161 53.1917 92.6649 53.6057C92.0186 54.0212 91.4527 54.7408 90.9671 55.7643C90.4954 56.7594 90.1919 57.5194 90.0566 58.0443C89.8844 58.7104 89.8861 59.241 90.0615 59.6359C90.2384 60.0259 90.5666 60.3008 91.0461 60.4606C91.7073 60.6856 92.2882 60.6882 92.7889 60.4683C93.2961 60.2449 93.7101 59.8333 94.0309 59.2334L96.2134 59.8701ZM101.674 60.6152L100.365 60.2233L98.2537 64.4438L96.0607 63.7876L101.215 53.4565L103.408 54.1127L101.339 58.2478L102.252 58.521L106.903 55.1585L109.717 56.0005L103.89 59.9977L104.795 66.401L102.288 65.6508L101.674 60.6152ZM117.15 58.2242L119.425 58.905L114.271 69.2361L112.07 68.5777L115.428 61.8518L107.924 67.3371L105.656 66.6585L110.81 56.3274L113.003 56.9836L109.643 63.717L117.15 58.2242ZM124.951 75.3509L122.915 74.7418L124.181 72.2011L117.826 70.2998L116.563 72.833L114.489 72.2127L116.487 67.9339L117.171 68.1549C118.332 67.8173 119.374 66.8894 120.296 65.3712L120.639 64.797L123.347 60.0785L130.3 62.1589L126 70.7802L127.243 71.152L124.951 75.3509ZM119.747 68.95L123.807 70.1241L127.249 63.2274L124.592 62.4325L122.601 65.8978C121.731 67.3337 120.779 68.3511 119.747 68.95ZM133.215 70.0521L131.905 69.6602L129.794 73.8806L127.601 73.2245L132.755 62.8934L134.948 63.5496L132.879 67.6847L133.792 67.9579L138.444 64.5954L141.258 65.4374L135.43 69.4346L136.336 75.8379L133.828 75.0877L133.215 70.0521ZM144.35 75.7894L140.548 74.6517L138.753 76.5612L136.336 75.8379L145.419 66.6825L147.448 67.2894L146.26 78.8074L144.022 78.1378L144.35 75.7894ZM141.99 73.1017L144.617 73.8877L145.217 69.6474L141.99 73.1017Z" fill="white"/>
<defs>
<linearGradient id="paint0_linear" x1="160.852" y1="141.224" x2="8.35076" y2="129.815" gradientUnits="userSpaceOnUse">
<stop stop-color="#EC081E"/>
<stop offset="1" stop-color="#FF9A0A"/>
</linearGradient>
<linearGradient id="paint1_linear" x1="108.022" y1="26.4124" x2="108.022" y2="158.227" gradientUnits="userSpaceOnUse">
<stop stop-color="#EC0424"/>
<stop offset="1" stop-color="#EB0220"/>
</linearGradient>
</defs>
</svg>
