<?xml version="1.0" encoding="utf-8"?>
<!-- Generator: Adobe Illustrator 17.1.0, SVG Export Plug-In . SVG Version: 6.00 Build 0)  -->
<!DOCTYPE svg PUBLIC "-//W3C//DTD SVG 1.0//EN" "http://www.w3.org/TR/2001/REC-SVG-20010904/DTD/svg10.dtd">
<svg version="1.0" id="Layer_1" xmlns="http://www.w3.org/2000/svg" xmlns:xlink="http://www.w3.org/1999/xlink" x="0px" y="0px"
	 viewBox="0 0 776 131" style="enable-background:new 0 0 776 131;" xml:space="preserve">
<style type="text/css">
	.st0{fill:#FCFCFC;}
	.st1{fill-rule:evenodd;clip-rule:evenodd;fill:#FCFCFC;}
</style>
<g>
	<path class="st0" d="M713.6,75.7c0-0.6,0.2-1.1,0.6-1.5c0.4-0.4,0.8-0.6,1.3-0.6h28.8c0.9,0,1.7-0.3,2.4-1c0.6-0.6,1-1.4,1-2.4
		V36.3c0-0.9-0.3-1.7-1-2.4c-0.6-0.6-1.4-1-2.4-1h-36.8v46.3c0,0.5-0.2,1-0.5,1.3c-0.4,0.4-0.8,0.6-1.4,0.6h-4.4
		c-0.5,0-1-0.2-1.3-0.6c-0.4-0.4-0.6-0.8-0.6-1.3V27.5c0-0.6,0.2-1.1,0.6-1.5c0.4-0.4,0.8-0.6,1.3-0.6h44.3c2.9,0,5.4,1,7.5,3
		c2,2,3,4.5,3,7.4v34.7c0,2.9-1,5.4-3.1,7.4c-2,2-4.5,3-7.5,3h-29.9c-0.5,0-1-0.2-1.3-0.6c-0.4-0.4-0.6-0.8-0.6-1.3V75.7z
		 M625.5,79.2c0,0.6-0.2,1-0.5,1.4c-0.4,0.4-0.8,0.5-1.4,0.5h-3.7c-0.6,0-1-0.2-1.4-0.5c-0.4-0.4-0.5-0.8-0.5-1.4V36.8
		c0-0.4,0.1-0.6,0.4-0.6c0.3,0,0.7,0.3,1.3,1l5.1,5.9c0.5,0.6,0.8,1.2,0.8,1.7V79.2z M665.5,27.5c0-0.6,0.2-1.1,0.6-1.5
		c0.4-0.4,0.9-0.6,1.5-0.6h3.6c0.6,0,1.1,0.2,1.5,0.6c0.4,0.4,0.6,0.9,0.6,1.5v51.7c0,0.6-0.2,1-0.6,1.4c-0.4,0.4-0.9,0.5-1.5,0.5
		h-4c-0.5,0-1.1-0.2-1.8-0.5c-0.7-0.3-1.2-0.7-1.7-1.2l-45.4-52.2c-0.4-0.4-0.5-0.8-0.5-1.2c0-0.4,0.3-0.5,0.8-0.5h6.6
		c0.5,0,1,0.3,1.6,0.9l38.7,44.8V27.5z M563.7,50.4c0-0.6,0.2-1,0.5-1.4c0.4-0.4,0.8-0.5,1.4-0.5h27.1c0.5,0,1,0.2,1.4,0.5
		c0.4,0.4,0.6,0.8,0.6,1.4v3.3c0,0.6-0.2,1-0.6,1.4c-0.4,0.4-0.8,0.5-1.4,0.5h-27.1c-0.6,0-1-0.2-1.4-0.5c-0.4-0.4-0.5-0.8-0.5-1.4
		V50.4z M557.8,73.7h38.3c0.5,0,1,0.2,1.3,0.6c0.4,0.4,0.6,0.9,0.6,1.5v3.5c0,0.5-0.2,1-0.6,1.3c-0.4,0.4-0.8,0.6-1.3,0.6h-44.7
		c-0.5,0-1-0.2-1.3-0.6c-0.4-0.4-0.6-0.8-0.6-1.3V27.5c0-0.6,0.2-1.1,0.6-1.5c0.4-0.4,0.8-0.6,1.3-0.6h44.1c0.6,0,1.1,0.2,1.5,0.6
		c0.4,0.4,0.6,0.9,0.6,1.5V31c0,0.5-0.2,1-0.6,1.3c-0.4,0.4-0.9,0.6-1.5,0.6h-37.8V73.7z M475.4,27.5c0-0.6,0.2-1.1,0.5-1.5
		c0.4-0.4,0.8-0.6,1.4-0.6h32.4c2.4,0,4.6,0.4,6.6,1.3c2.1,0.9,3.8,2.1,5.4,3.7c1.5,1.5,2.8,3.3,3.7,5.4c0.9,2.1,1.3,4.3,1.3,6.6
		c0,2-0.3,3.9-1,5.7c-0.6,1.8-1.5,3.4-2.7,4.9c-1.1,1.4-2.5,2.7-4.1,3.7c-1.6,1-3.3,1.8-5.1,2.2l15.3,20.9c0.1,0.2,0.2,0.5,0.2,0.8
		c0,0.4-0.2,0.5-0.6,0.5H522c-0.5,0-1-0.2-1.6-0.5c-0.5-0.3-1-0.7-1.3-1.2l-14.7-20h-12.6c-0.6,0-1-0.2-1.4-0.5
		c-0.4-0.4-0.5-0.8-0.5-1.4v-3.3c0-0.6,0.2-1,0.5-1.4c0.4-0.4,0.8-0.5,1.4-0.5h16.8c2.7,0,5.1-0.9,7.1-2.8c2-1.9,3-4.2,3-6.9
		c0-2.7-1-5-3-6.9c-2-1.9-4.3-2.8-7.1-2.8h-24.9v46.3c0,0.6-0.2,1-0.6,1.4c-0.4,0.4-0.9,0.5-1.5,0.5h-4.3c-0.6,0-1-0.2-1.4-0.5
		c-0.4-0.4-0.5-0.8-0.5-1.4V27.5z M429.9,40.8c0-0.6,0.2-1,0.6-1.4c0.4-0.4,0.9-0.5,1.5-0.5h4.3c0.6,0,1,0.2,1.4,0.5
		c0.4,0.4,0.5,0.8,0.5,1.4v38.4c0,0.6-0.2,1-0.5,1.4c-0.4,0.4-0.8,0.5-1.4,0.5H432c-0.6,0-1.1-0.2-1.5-0.5c-0.4-0.4-0.6-0.8-0.6-1.4
		V40.8z M407,27.4c0-0.5,0.2-1,0.5-1.4c0.4-0.4,0.8-0.6,1.4-0.6h50.4c0.6,0,1,0.2,1.4,0.6c0.4,0.4,0.5,0.8,0.5,1.4v3.5
		c0,1.4-0.6,2-1.9,2H409c-0.6,0-1-0.2-1.4-0.6c-0.4-0.4-0.5-0.9-0.5-1.5V27.4z M364.7,50.4c0-0.6,0.2-1,0.5-1.4
		c0.4-0.4,0.8-0.5,1.4-0.5h27.1c0.5,0,1,0.2,1.4,0.5c0.4,0.4,0.6,0.8,0.6,1.4v3.3c0,0.6-0.2,1-0.6,1.4c-0.4,0.4-0.8,0.5-1.4,0.5
		h-27.1c-0.6,0-1-0.2-1.4-0.5c-0.4-0.4-0.5-0.8-0.5-1.4V50.4z M358.7,73.7H397c0.5,0,1,0.2,1.3,0.6c0.4,0.4,0.6,0.9,0.6,1.5v3.5
		c0,0.5-0.2,1-0.6,1.3c-0.4,0.4-0.8,0.6-1.3,0.6h-44.7c-0.5,0-1-0.2-1.3-0.6c-0.4-0.4-0.6-0.8-0.6-1.3V27.5c0-0.6,0.2-1.1,0.6-1.5
		c0.4-0.4,0.8-0.6,1.3-0.6h44.1c0.6,0,1.1,0.2,1.5,0.6c0.4,0.4,0.6,0.9,0.6,1.5V31c0,0.5-0.2,1-0.6,1.3c-0.4,0.4-0.9,0.6-1.5,0.6
		h-37.8V73.7z M286.9,27.4c0-0.5,0.2-1,0.6-1.4c0.4-0.4,0.9-0.6,1.4-0.6h4.4c0.6,0,1.1,0.2,1.4,0.6c0.4,0.4,0.6,0.8,0.6,1.4v46.3
		h35.9c0.6,0,1.1,0.2,1.5,0.6c0.4,0.4,0.6,0.9,0.6,1.5v3.3c0,0.6-0.2,1.1-0.6,1.5c-0.4,0.4-0.9,0.6-1.5,0.6h-42.3
		c-0.6,0-1.1-0.2-1.4-0.6c-0.4-0.4-0.6-0.9-0.6-1.5V27.4z M232.7,50.4c0-0.6,0.2-1,0.5-1.4c0.4-0.4,0.8-0.5,1.4-0.5h27.1
		c0.5,0,1,0.2,1.4,0.5c0.4,0.4,0.6,0.8,0.6,1.4v3.3c0,0.6-0.2,1-0.6,1.4c-0.4,0.4-0.8,0.5-1.4,0.5h-27.1c-0.6,0-1-0.2-1.4-0.5
		c-0.4-0.4-0.5-0.8-0.5-1.4V50.4z M226.8,73.7h38.3c0.5,0,1,0.2,1.3,0.6c0.4,0.4,0.6,0.9,0.6,1.5v3.5c0,0.5-0.2,1-0.6,1.3
		c-0.4,0.4-0.8,0.6-1.3,0.6h-44.7c-0.5,0-1-0.2-1.3-0.6c-0.4-0.4-0.6-0.8-0.6-1.3V27.5c0-0.6,0.2-1.1,0.6-1.5
		c0.4-0.4,0.8-0.6,1.3-0.6h44.1c0.6,0,1.1,0.2,1.5,0.6c0.4,0.4,0.6,0.9,0.6,1.5V31c0,0.5-0.2,1-0.6,1.3c-0.4,0.4-0.9,0.6-1.5,0.6
		h-37.8V73.7z M172.9,40.8c0-0.6,0.2-1,0.6-1.4c0.4-0.4,0.9-0.5,1.5-0.5h4.3c0.6,0,1,0.2,1.4,0.5c0.4,0.4,0.5,0.8,0.5,1.4v38.4
		c0,0.6-0.2,1-0.5,1.4c-0.4,0.4-0.8,0.5-1.4,0.5H175c-0.6,0-1.1-0.2-1.5-0.5c-0.4-0.4-0.6-0.8-0.6-1.4V40.8z M150.1,27.4
		c0-0.5,0.2-1,0.5-1.4c0.4-0.4,0.8-0.6,1.4-0.6h50.4c0.6,0,1,0.2,1.4,0.6c0.4,0.4,0.5,0.8,0.5,1.4v3.5c0,1.4-0.6,2-1.9,2H152
		c-0.6,0-1-0.2-1.4-0.6c-0.4-0.4-0.5-0.9-0.5-1.5V27.4z"/>
	<path class="st0" d="M740.3,111.1h-3.1v6.4h3.1c0.9,0,1.7-0.3,2.3-0.9c0.6-0.6,0.9-1.4,0.9-2.3c0-0.9-0.3-1.7-0.9-2.3
		C742,111.4,741.2,111.1,740.3,111.1 M744.6,118.3c-1.1,1-2.5,1.5-4.3,1.5h-4.5c-0.4,0-0.8-0.1-1-0.4c-0.2-0.2-0.4-0.6-0.4-1.1
		v-14.2c0-0.4,0.1-0.8,0.3-1c0.2-0.2,0.6-0.4,1-0.4c0.4,0,0.8,0.1,1,0.4c0.2,0.2,0.3,0.6,0.3,1v4.7h3.3c0.8,0,1.6,0.1,2.3,0.4
		c1.1,0.4,1.9,1.1,2.6,1.9c0.6,0.9,0.9,1.9,0.9,3.1C746.2,115.9,745.7,117.3,744.6,118.3z M750.4,119.9c-0.4,0-0.7-0.1-1-0.4
		c-0.3-0.3-0.4-0.6-0.4-1v-14.3c0-0.4,0.1-0.8,0.4-1.1c0.2-0.2,0.6-0.4,1-0.4c0.4,0,0.8,0.1,1,0.4c0.2,0.2,0.3,0.6,0.3,1v14.3
		c0,0.4-0.1,0.8-0.4,1C751.1,119.8,750.8,119.9,750.4,119.9z M708.4,106.1c-0.6-0.6-1.4-0.9-2.3-0.9h-3.2v6.4h3.2
		c1,0,1.7-0.3,2.3-0.9c0.6-0.6,0.9-1.4,0.9-2.3C709.3,107.5,709,106.7,708.4,106.1z M708.6,113.5c-0.7,0.3-1.5,0.4-2.3,0.4h-3.4v4.7
		c0,0.4-0.1,0.8-0.4,1c-0.2,0.3-0.6,0.4-1,0.4c-0.4,0-0.8-0.1-1-0.4c-0.2-0.3-0.4-0.6-0.4-1v-14.2c0-0.5,0.1-0.8,0.4-1.1
		c0.3-0.2,0.6-0.4,1.1-0.4h4.6c1.8,0,3.2,0.5,4.4,1.5c1.1,1,1.7,2.3,1.7,4c0,1.2-0.3,2.2-1,3.1C710.6,112.4,709.7,113.1,708.6,113.5
		z M670.1,105.3l-3.3,8.6h6.3L670.1,105.3z M677.1,119.6c-0.2,0.2-0.5,0.3-0.9,0.3c-0.7,0-1.1-0.3-1.3-0.9l-0.9-2.7h-7.9l-0.9,2.7
		c-0.2,0.6-0.6,0.9-1.3,0.9c-0.4,0-0.7-0.1-0.9-0.3c-0.3-0.2-0.4-0.5-0.4-0.9c0-0.1,0.1-0.3,0.1-0.7l5.1-13.7
		c0.4-1.2,1.2-1.7,2.2-1.7c1,0,1.8,0.6,2.2,1.7l5,13.7c0.1,0.3,0.2,0.5,0.2,0.7C677.4,119.1,677.3,119.4,677.1,119.6z M634.2,112.3
		h-3.3v5.3h3.6c0.9,0,1.6-0.2,2.1-0.7c0.6-0.5,0.9-1.2,0.9-2C637.5,113.1,636.4,112.3,634.2,112.3z M635.3,105.8
		c-0.5-0.4-1.1-0.6-1.9-0.6h-2.6v4.9h2.6c0.8,0,1.4-0.2,1.9-0.7c0.5-0.5,0.7-1.1,0.7-1.8C636.1,106.8,635.9,106.2,635.3,105.8z
		 M638.9,118.5c-1,0.8-2.3,1.2-3.9,1.2h-5.3c-0.4,0-0.8-0.1-1.1-0.4c-0.3-0.2-0.4-0.6-0.4-1v-14.1c0-0.4,0.1-0.8,0.4-1
		c0.3-0.2,0.6-0.4,1.1-0.4h4.9c1.9,0,3.2,0.8,4,2.3c0.2,0.5,0.3,1,0.3,1.6c0,0.9-0.2,1.7-0.7,2.4c-0.5,0.7-1.1,1.2-2,1.4
		c1.2,0.2,2.3,0.8,3.2,1.7c0.6,0.7,1,1.5,1,2.5C640.4,116.4,639.9,117.7,638.9,118.5z M599.5,105.6c-0.7-0.4-1.5-0.5-2.3-0.5
		c-1.7,0-3.1,0.7-4.1,2.1c-0.8,1.1-1.2,2.6-1.2,4.3c0,1.7,0.4,3.2,1.3,4.4c1,1.3,2.3,2,4,2c1.7,0,3.1-0.7,4.1-2
		c0.8-1.2,1.2-2.6,1.2-4.3C602.5,108.6,601.5,106.7,599.5,105.6z M603.1,117.6c-1.5,1.7-3.5,2.5-5.9,2.5c-2.4,0-4.4-0.9-5.9-2.6
		c-1.5-1.7-2.2-3.7-2.2-6.1c0-2.5,0.7-4.5,2.2-6.2c1.5-1.7,3.5-2.5,6-2.5c2.4,0,4.3,0.9,5.9,2.6c1.5,1.7,2.2,3.7,2.2,6.1
		C605.4,113.8,604.6,115.9,603.1,117.6z M565.9,105.3h-3.4v13.2c0,0.4-0.1,0.8-0.4,1c-0.2,0.3-0.6,0.4-1,0.4c-0.4,0-0.8-0.1-1-0.4
		c-0.2-0.3-0.4-0.6-0.4-1v-13.2h-3.4c-0.4,0-0.7-0.1-0.9-0.3c-0.2-0.2-0.3-0.5-0.3-0.9c0-0.3,0.1-0.6,0.4-0.8
		c0.2-0.2,0.5-0.4,0.9-0.4h9.5c0.4,0,0.6,0.1,0.9,0.3c0.2,0.2,0.3,0.5,0.3,0.9c0,0.4-0.1,0.7-0.3,0.9
		C566.6,105.2,566.3,105.3,565.9,105.3z M493.2,119.4c-0.3,0.2-0.6,0.4-1,0.4h-6.8c-0.4,0-0.8-0.1-1.1-0.4c-0.3-0.3-0.4-0.6-0.4-1
		v-13.8c0-1.1,0.5-1.7,1.5-1.7h6.6c0.4,0,0.7,0.1,1,0.3c0.2,0.2,0.4,0.5,0.4,0.9c0,0.3-0.1,0.6-0.3,0.8c-0.3,0.2-0.6,0.4-1,0.4h-5.2
		v4.8h4.9c0.4,0,0.8,0.1,1,0.3c0.2,0.2,0.3,0.5,0.3,0.9c0,0.4-0.1,0.6-0.4,0.8c-0.3,0.2-0.6,0.3-1,0.3h-4.9v4.9h5.4
		c0.4,0,0.7,0.1,1,0.3c0.2,0.2,0.4,0.5,0.4,0.9C493.5,118.9,493.4,119.2,493.2,119.4z M449.1,111.1H446v6.4h3.1
		c0.9,0,1.7-0.3,2.3-0.9c0.6-0.6,0.9-1.4,0.9-2.3c0-0.9-0.3-1.7-0.9-2.3C450.8,111.4,450.1,111.1,449.1,111.1z M453.5,118.3
		c-1.1,1-2.5,1.5-4.3,1.5h-4.5c-0.4,0-0.8-0.1-1-0.4c-0.2-0.2-0.4-0.6-0.4-1.1v-14.2c0-0.4,0.1-0.8,0.3-1c0.2-0.2,0.6-0.4,1-0.4
		c0.4,0,0.8,0.1,1,0.4c0.2,0.2,0.3,0.6,0.3,1v4.7h3.3c0.8,0,1.6,0.1,2.3,0.4c1.1,0.4,1.9,1.1,2.6,1.9c0.6,0.9,0.9,1.9,0.9,3.1
		C455.1,115.9,454.5,117.3,453.5,118.3z M459.2,119.9c-0.4,0-0.7-0.1-1-0.4c-0.3-0.3-0.4-0.6-0.4-1v-14.3c0-0.4,0.1-0.8,0.4-1.1
		c0.2-0.2,0.6-0.4,1-0.4c0.4,0,0.8,0.1,1,0.4c0.2,0.2,0.3,0.6,0.3,1v14.3c0,0.4-0.1,0.8-0.4,1C460,119.8,459.6,119.9,459.2,119.9z
		 M418.7,119.9c-0.4,0-0.8-0.1-1-0.4c-0.2-0.3-0.4-0.6-0.4-1v-6h-9.1v6c0,0.4-0.1,0.8-0.4,1c-0.2,0.3-0.6,0.4-1,0.4
		c-0.4,0-0.8-0.1-1-0.4c-0.2-0.3-0.4-0.6-0.4-1v-14.3c0-0.4,0.1-0.8,0.3-1c0.2-0.2,0.6-0.4,1-0.4c0.4,0,0.8,0.1,1,0.4
		c0.2,0.2,0.4,0.6,0.4,1v5.9h9.1v-5.9c0-0.4,0.1-0.8,0.4-1c0.2-0.2,0.6-0.4,1-0.4c0.4,0,0.8,0.1,1,0.4c0.2,0.2,0.3,0.6,0.3,1v14.3
		c0,0.4-0.1,0.8-0.4,1C419.4,119.8,419.1,119.9,418.7,119.9z M378.9,112.1c-0.6-0.6-1.4-0.9-2.3-0.9h-3.2v6.4h3.2
		c0.9,0,1.7-0.3,2.3-0.9c0.6-0.6,0.9-1.4,0.9-2.3C379.8,113.4,379.5,112.7,378.9,112.1z M381,118.3c-1.1,1-2.6,1.5-4.4,1.5H372
		c-0.5,0-0.8-0.1-1.1-0.4c-0.3-0.2-0.4-0.6-0.4-1v-14.2c0-0.4,0.1-0.8,0.4-1.1c0.2-0.2,0.6-0.4,1-0.4c0.5,0,0.8,0.1,1,0.4
		c0.2,0.2,0.4,0.6,0.4,1v4.7h3.4c0.9,0,1.6,0.1,2.3,0.4c1.1,0.4,2,1,2.6,1.9c0.6,0.9,1,1.9,1,3.1C382.7,115.9,382.1,117.2,381,118.3
		z M345.3,119.9c-0.4,0-0.8-0.1-1-0.4c-0.2-0.3-0.4-0.6-0.4-1v-13.3h-5.6l0,7.4c0,1.7-0.2,3.2-0.7,4.4c-0.7,2-1.8,3-3.4,3
		c0,0,0,0,0,0c-0.4,0-0.8-0.1-1-0.4c-0.2-0.3-0.3-0.6-0.3-0.9c0,0,0-0.1,0-0.1c0-0.4,0.2-0.7,0.4-1c0.1-0.1,0.1-0.1,0.2-0.1
		c0.1,0,0.3,0,0.5-0.1c1.2-0.3,1.7-1.5,1.7-3.9v-0.1l-0.1-9.1c0-0.4,0.1-0.8,0.4-1.1c0.2-0.2,0.6-0.4,1-0.4h8.3c0.4,0,0.8,0.1,1,0.4
		c0.2,0.2,0.4,0.6,0.4,1v14.3c0,0.4-0.1,0.8-0.4,1C346,119.8,345.7,119.9,345.3,119.9z M304.1,105.3l-3.3,8.6h6.3L304.1,105.3z
		 M311.1,119.6c-0.2,0.2-0.5,0.3-0.9,0.3c-0.7,0-1.1-0.3-1.3-0.9l-0.9-2.7h-7.9l-0.9,2.7c-0.2,0.6-0.6,0.9-1.3,0.9
		c-0.4,0-0.7-0.1-0.9-0.3c-0.3-0.2-0.4-0.5-0.4-0.9c0-0.1,0.1-0.3,0.1-0.7l5.1-13.7c0.4-1.2,1.2-1.7,2.2-1.7c1,0,1.8,0.6,2.2,1.7
		l5,13.7c0.1,0.3,0.2,0.5,0.2,0.7C311.4,119.1,311.3,119.4,311.1,119.6z M274.7,119.6c-0.3,0.2-0.6,0.3-1.1,0.3
		c-0.4,0-0.9-0.3-1.5-1l-7.6-8.1v7.8c0,0.4-0.1,0.7-0.4,0.9c-0.3,0.2-0.6,0.4-1,0.4c-0.4,0-0.7-0.1-1-0.3c-0.3-0.2-0.4-0.5-0.4-0.9
		v-14.6c0-0.4,0.1-0.7,0.4-1c0.2-0.2,0.6-0.3,1-0.3c0.4,0,0.8,0.1,1,0.3c0.2,0.2,0.4,0.6,0.4,1v6.8l7.3-7.6c0.3-0.4,0.7-0.5,1.1-0.5
		c0.9,0,1.4,0.4,1.4,1.3c0,0.4-0.4,0.9-1.1,1.6l-5.2,5.1l6.3,6.5c0.6,0.6,0.9,1.1,0.9,1.5C275,119.1,274.9,119.4,274.7,119.6z
		 M236.9,119.9c-0.4,0-0.8-0.1-1-0.4c-0.2-0.3-0.4-0.6-0.4-1l0-10.7l-9.1,11.5c-0.1,0.1-0.3,0.3-0.6,0.4c-0.2,0.1-0.4,0.2-0.6,0.2
		c-0.4,0-0.8-0.1-1-0.4c-0.2-0.3-0.4-0.6-0.4-1v-14.3c0-0.4,0.1-0.8,0.3-1c0.2-0.2,0.6-0.4,1-0.4c0.4,0,0.8,0.1,1,0.4
		c0.2,0.2,0.4,0.6,0.4,1v10.6l9.1-11.4c0.1-0.2,0.3-0.3,0.6-0.5c0.2-0.1,0.4-0.1,0.5-0.1c0.4,0,0.8,0.1,1,0.4c0.2,0.2,0.4,0.6,0.4,1
		v14.3c0,0.4-0.1,0.8-0.4,1C237.7,119.8,237.3,119.9,236.9,119.9z M199.1,119.9c-0.4,0-0.8-0.1-1-0.4c-0.2-0.3-0.4-0.6-0.4-1v-6
		h-9.1v6c0,0.4-0.1,0.8-0.4,1c-0.2,0.3-0.6,0.4-1,0.4c-0.4,0-0.8-0.1-1-0.4c-0.2-0.3-0.4-0.6-0.4-1v-14.3c0-0.4,0.1-0.8,0.3-1
		c0.2-0.2,0.6-0.4,1-0.4c0.4,0,0.8,0.1,1,0.4c0.2,0.2,0.4,0.6,0.4,1v5.9h9.1v-5.9c0-0.4,0.1-0.8,0.4-1c0.2-0.2,0.6-0.4,1-0.4
		c0.4,0,0.8,0.1,1,0.4c0.2,0.2,0.3,0.6,0.3,1v14.3c0,0.4-0.1,0.8-0.4,1C199.9,119.8,199.5,119.9,199.1,119.9z M163.8,104.7l-3.6,7.4
		c-1.2,2.5-1.9,4-2.2,4.3c-1.1,1.8-2,2.8-3,3.1c-0.5,0.2-0.9,0.2-1.5,0.2c-1.2,0-1.9-0.5-2.2-1.4c0-0.1,0-0.2,0-0.3
		c0-0.3,0.1-0.5,0.3-0.7c0.3-0.3,0.6-0.4,0.8-0.4h0.1c0.3,0,0.6,0.1,0.9,0.1c0.4,0,0.8-0.1,1.2-0.2c0.6-0.3,1-0.9,1.4-1.8l-5.6-10.2
		c-0.1-0.2-0.2-0.4-0.2-0.6c0-0.1,0-0.1,0-0.3c0-0.3,0.2-0.6,0.4-0.8c0.2-0.2,0.5-0.3,0.8-0.3c0,0,0.1,0,0.2,0
		c0.5,0.1,0.9,0.3,1.1,0.7l4.7,8.4l3.9-8.4c0.2-0.5,0.7-0.7,1.3-0.7c0.7,0,1.1,0.4,1.2,1.1c0,0.1,0,0.2,0,0.3
		C163.9,104.3,163.9,104.5,163.8,104.7z"/>
	<path class="st1" d="M57.7,112.4V71.8H32.2V60h37.3v52.4H57.7z M42.3,35.1h69.1v11.8H42.3V35.1z M121.5,71.8H96.2v40.6H84.4V60
		h37.1V71.8z M76.9,122.8c29.5,0,53.4-23.9,53.4-53.4c0-29.5-23.9-53.4-53.4-53.4c-29.5,0-53.4,23.9-53.4,53.4
		C23.4,98.9,47.4,122.8,76.9,122.8z"/>
</g>
</svg>
