<svg width="150" height="150" viewBox="0 0 150 150" fill="none" xmlns="http://www.w3.org/2000/svg">
<circle cx="75" cy="75" r="75" fill="#5FAB00"/>
<path d="M62.7189 54.734H76.0329V62H83.2989V54.734H86.8689V48.644H83.2989V31.97H74.3109L62.7189 50.282V54.734ZM70.1949 48.644V48.56L74.7309 41.672C75.5709 40.412 76.2009 38.564 76.2009 38.564H76.2849C76.2849 38.564 76.0329 40.286 76.0329 41.924V48.644H70.1949Z" fill="#FFDA35"/>
<path d="M19.6375 85H22.4375V80.36H23.5895L26.0055 85H29.1415L25.8775 79.064V79.032L28.9655 73.56H25.9575L23.5895 77.976H22.4375V73.56H19.6375V85ZM29.4666 79.208C29.4666 82.568 31.9946 85.192 35.4506 85.192C38.9066 85.192 41.4346 82.568 41.4346 79.208C41.4346 75.928 38.9066 73.368 35.4506 73.368C31.9946 73.368 29.4666 75.928 29.4666 79.208ZM32.3626 79.208C32.3626 77.336 33.7386 75.928 35.4506 75.928C37.1626 75.928 38.5386 77.336 38.5386 79.208C38.5386 81.16 37.1626 82.632 35.4506 82.632C33.7386 82.632 32.3626 81.16 32.3626 79.208ZM43.2156 85H46.0156V80.52H50.1756V85H52.9756V73.56H50.1756V78.136H46.0156V73.56H43.2156V85ZM57.8519 85H60.6519V75.96H64.1239V73.56H54.3799V75.96H57.8519V85ZM65.5281 85H72.9201V82.6H68.3281V80.44H71.8161V78.04H68.3281V75.96H72.6961V73.56H65.5281V85ZM79.7389 73.048C81.3549 73.048 82.7629 72.168 82.7629 70.6V70.424H80.7309V70.616C80.7309 71.272 80.2029 71.56 79.7389 71.56C79.2589 71.56 78.7469 71.272 78.7469 70.616V70.424H76.6989V70.6C76.6989 72.168 78.1069 73.048 79.7389 73.048ZM74.7469 85H77.5629L80.7469 79.672C81.1949 78.92 81.7069 77.72 81.7069 77.72H81.7389C81.7389 77.72 81.6109 78.952 81.6109 79.672V85H84.4109V73.56H81.5789L78.4109 78.904C77.9629 79.656 77.4509 80.856 77.4509 80.856H77.4189C77.4189 80.856 77.5469 79.624 77.5469 78.904V73.56H74.7469V85ZM86.8094 85H89.6094V80.52H93.7694V85H96.5694V73.56H93.7694V78.136H89.6094V73.56H86.8094V85ZM98.9656 85H106.358V82.6H101.766V80.44H105.254V78.04H101.766V75.96H106.134V73.56H98.9656V85ZM108.184 85H110.984V81.464H112.936C115.16 81.464 116.664 79.8 116.664 77.496C116.664 75.192 115.16 73.56 112.936 73.56H108.184V85ZM110.984 79.064V75.96H112.408C113.336 75.96 113.816 76.584 113.816 77.496C113.816 78.408 113.336 79.064 112.36 79.064H110.984ZM116.389 85H119.27L119.958 82.6H123.526L124.23 85H127.11L123.222 73.56H120.278L116.389 85ZM120.614 80.36L121.27 78.136C121.478 77.416 121.734 76.168 121.734 76.168H121.766C121.766 76.168 122.022 77.416 122.23 78.136L122.87 80.36H120.614ZM21.9186 109H27.7046C30.8286 109 33.6886 107.746 33.6886 104.314C33.6886 102.928 33.0286 101.322 31.2246 100.772V100.728C32.4126 100.046 33.0506 98.704 33.0506 97.384C33.0506 94.678 30.8506 93.27 27.7046 93.27H21.9186V109ZM25.7686 99.364V96.57H27.6826C28.7166 96.57 29.1346 97.186 29.1346 97.912C29.1346 98.66 28.7166 99.364 27.7486 99.364H25.7686ZM25.7686 105.7V102.444H28.1006C29.2226 102.444 29.7506 103.17 29.7506 104.05C29.7506 104.93 29.2006 105.7 28.0786 105.7H25.7686ZM41.6627 109H45.5127V102.84H51.2327V109H55.0827V93.27H51.2327V99.562H45.5127V93.27H41.6627V109ZM56.6615 109H60.6215L61.5675 105.7H66.4735L67.4415 109H71.4015L66.0555 93.27H62.0075L56.6615 109ZM62.4695 102.62L63.3715 99.562C63.6575 98.572 64.0095 96.856 64.0095 96.856H64.0535C64.0535 96.856 64.4055 98.572 64.6915 99.562L65.5715 102.62H62.4695ZM72.9869 109H79.5209C82.5789 109 84.6469 106.932 84.6469 104.028C84.6469 101.124 82.5789 99.012 79.5209 99.012H76.8369V96.57H83.2169V93.27H72.9869V109ZM76.8369 105.7V102.312H78.7289C80.0709 102.312 80.7309 103.038 80.7309 104.028C80.7309 105.018 80.0709 105.7 78.7949 105.7H76.8369ZM86.0508 101.036C86.0508 105.656 89.5268 109.264 94.2788 109.264C99.0308 109.264 102.507 105.656 102.507 101.036C102.507 96.526 99.0308 93.006 94.2788 93.006C89.5268 93.006 86.0508 96.526 86.0508 101.036ZM90.0328 101.036C90.0328 98.462 91.9248 96.526 94.2788 96.526C96.6328 96.526 98.5248 98.462 98.5248 101.036C98.5248 103.72 96.6328 105.744 94.2788 105.744C91.9248 105.744 90.0328 103.72 90.0328 101.036ZM104.956 109H108.806V104.138H111.49C114.548 104.138 116.616 101.85 116.616 98.682C116.616 95.514 114.548 93.27 111.49 93.27H104.956V109ZM108.806 100.838V96.57H110.764C112.04 96.57 112.7 97.428 112.7 98.682C112.7 99.936 112.04 100.838 110.698 100.838H108.806ZM118.706 109H128.87V105.7H122.556V102.73H127.352V99.43H122.556V96.57H128.562V93.27H118.706V109Z" fill="white"/>
</svg>
