<svg width="18" height="26" viewBox="0 0 18 26" fill="none" xmlns="http://www.w3.org/2000/svg">
<path fill-rule="evenodd" clip-rule="evenodd" d="M15.7962 10.754C15.5095 10.754 15.2358 10.808 14.984 10.908C14.7293 9.976 13.8721 9.288 12.8571 9.288C12.5704 9.288 12.2967 9.344 12.045 9.443C11.9261 9.009 11.6763 8.627 11.3407 8.344C11.8492 7.535 12.1229 6.597 12.1229 5.626C12.1229 2.8 9.81519 0.5 6.97902 0.5C4.14286 0.5 1.83516 2.8 1.83516 5.626C1.83516 7.618 2.997 9.418 4.77423 10.259V14.452L4.38861 14.068C3.38561 13.068 1.75425 13.068 0.752248 14.068C-0.250749 15.067 -0.250749 16.693 0.752248 17.693L4.89111 21.819L6.3047 25.059C6.42158 25.326 6.68631 25.5 6.97902 25.5L15.7992 25.499C16.1159 25.499 16.3966 25.298 16.4965 24.998C17.4805 22.049 18 18.815 18 15.643V12.951C18 11.739 17.012 10.754 15.7962 10.754ZM4.77423 5.626V8.556C3.86713 7.877 3.3047 6.798 3.3047 5.626C3.3047 3.607 4.95305 1.964 6.97902 1.964C9.005 1.964 10.6523 3.607 10.6523 5.626C10.6523 6.424 10.3936 7.192 9.91808 7.823C9.66034 7.823 9.41359 7.868 9.18282 7.949V5.626C9.18282 4.415 8.19481 3.429 6.97902 3.429C5.76324 3.429 4.77423 4.415 4.77423 5.626ZM16.5315 15.643C16.5315 18.48 16.0939 21.369 15.2637 24.034L7.46054 24.035L6.18282 21.107C6.14685 21.023 6.09391 20.946 6.02897 20.881L1.79121 16.657C1.36064 16.228 1.35964 15.533 1.79121 15.104C2.22178 14.674 2.91808 14.674 3.34965 15.104L4.99001 16.739C5.1998 16.948 5.51648 17.011 5.79021 16.897C6.06494 16.784 6.24376 16.517 6.24376 16.221V5.626C6.24376 5.223 6.57343 4.894 6.97902 4.894C7.38462 4.894 7.71329 5.223 7.71329 5.626C7.71329 5.918 7.71329 12.61 7.71329 12.951C7.71329 13.355 8.04296 13.683 8.44855 13.683C8.85415 13.683 9.18282 13.355 9.18282 12.951C9.18282 12.64 9.18282 10.331 9.18282 10.021C9.18282 9.617 9.51249 9.288 9.91808 9.288C10.3237 9.288 10.6523 9.617 10.6523 10.021C10.6523 10.331 10.6523 12.64 10.6523 12.951C10.6523 13.355 10.982 13.683 11.3876 13.683C11.7932 13.683 12.1229 13.355 12.1229 12.951V11.486C12.1229 11.082 12.4515 10.754 12.8571 10.754C13.2627 10.754 13.5924 11.082 13.5924 11.486V12.951C13.5924 13.355 13.9211 13.683 14.3267 13.683C14.7323 13.683 15.0619 13.355 15.0619 12.951C15.0619 12.547 15.3916 12.219 15.7962 12.219C16.2018 12.219 16.5315 12.547 16.5315 12.951V15.643Z" fill="white"/>
</svg>
