<svg width="178" height="178" viewBox="0 0 178 178" fill="none" xmlns="http://www.w3.org/2000/svg">
<circle cx="89" cy="89" r="89" fill="#5FAB00"/>
<path d="M76.7189 66.734H90.0329V74H97.2989V66.734H100.869V60.644H97.2989V43.97H88.3109L76.7189 62.282V66.734ZM84.1949 60.644V60.56L88.7309 53.672C89.5709 52.412 90.2009 50.564 90.2009 50.564H90.2849C90.2849 50.564 90.0329 52.286 90.0329 53.924V60.644H84.1949Z" fill="#FFDA35"/>
<path d="M29.2484 97H32.3984V91.78H33.6944L36.4124 97H39.9404L36.2684 90.322V90.286L39.7424 84.13H36.3584L33.6944 89.098H32.3984V84.13H29.2484V97ZM40.3062 90.484C40.3062 94.264 43.1502 97.216 47.0382 97.216C50.9262 97.216 53.7702 94.264 53.7702 90.484C53.7702 86.794 50.9262 83.914 47.0382 83.914C43.1502 83.914 40.3062 86.794 40.3062 90.484ZM43.5642 90.484C43.5642 88.378 45.1122 86.794 47.0382 86.794C48.9642 86.794 50.5122 88.378 50.5122 90.484C50.5122 92.68 48.9642 94.336 47.0382 94.336C45.1122 94.336 43.5642 92.68 43.5642 90.484ZM55.7738 97H58.9238V91.96H63.6038V97H66.7538V84.13H63.6038V89.278H58.9238V84.13H55.7738V97ZM72.2396 97H75.3896V86.83H79.2956V84.13H68.3336V86.83H72.2396V97ZM80.8754 97H89.1914V94.3H84.0254V91.87H87.9494V89.17H84.0254V86.83H88.9394V84.13H80.8754V97ZM96.8625 83.554C98.6805 83.554 100.264 82.564 100.264 80.8V80.602H97.9785V80.818C97.9785 81.556 97.3845 81.88 96.8625 81.88C96.3225 81.88 95.7465 81.556 95.7465 80.818V80.602H93.4425V80.8C93.4425 82.564 95.0265 83.554 96.8625 83.554ZM91.2465 97H94.4145L97.9965 91.006C98.5005 90.16 99.0765 88.81 99.0765 88.81H99.1125C99.1125 88.81 98.9685 90.196 98.9685 91.006V97H102.118V84.13H98.9325L95.3685 90.142C94.8645 90.988 94.2885 92.338 94.2885 92.338H94.2525C94.2525 92.338 94.3965 90.952 94.3965 90.142V84.13H91.2465V97ZM104.817 97H107.967V91.96H112.647V97H115.797V84.13H112.647V89.278H107.967V84.13H104.817V97ZM118.493 97H126.809V94.3H121.643V91.87H125.567V89.17H121.643V86.83H126.557V84.13H118.493V97ZM128.864 97H132.014V93.022H134.21C136.712 93.022 138.404 91.15 138.404 88.558C138.404 85.966 136.712 84.13 134.21 84.13H128.864V97ZM132.014 90.322V86.83H133.616C134.66 86.83 135.2 87.532 135.2 88.558C135.2 89.584 134.66 90.322 133.562 90.322H132.014ZM138.094 97H141.334L142.108 94.3H146.122L146.914 97H150.154L145.78 84.13H142.468L138.094 97ZM142.846 91.78L143.584 89.278C143.818 88.468 144.106 87.064 144.106 87.064H144.142C144.142 87.064 144.43 88.468 144.664 89.278L145.384 91.78H142.846ZM31.093 124H37.405C40.813 124 43.933 122.632 43.933 118.888C43.933 117.376 43.213 115.624 41.245 115.024V114.976C42.541 114.232 43.237 112.768 43.237 111.328C43.237 108.376 40.837 106.84 37.405 106.84H31.093V124ZM35.293 113.488V110.44H37.381C38.509 110.44 38.965 111.112 38.965 111.904C38.965 112.72 38.509 113.488 37.453 113.488H35.293ZM35.293 120.4V116.848H37.837C39.061 116.848 39.637 117.64 39.637 118.6C39.637 119.56 39.037 120.4 37.813 120.4H35.293ZM52.632 124H56.832V117.28H63.072V124H67.272V106.84H63.072V113.704H56.832V106.84H52.632V124ZM68.9944 124H73.3144L74.3464 120.4H79.6984L80.7544 124H85.0744L79.2424 106.84H74.8264L68.9944 124ZM75.3304 117.04L76.3144 113.704C76.6264 112.624 77.0104 110.752 77.0104 110.752H77.0584C77.0584 110.752 77.4424 112.624 77.7544 113.704L78.7144 117.04H75.3304ZM86.8039 124H93.9319C97.2679 124 99.5239 121.744 99.5239 118.576C99.5239 115.408 97.2679 113.104 93.9319 113.104H91.0039V110.44H97.9639V106.84H86.8039V124ZM91.0039 120.4V116.704H93.0679C94.5319 116.704 95.2519 117.496 95.2519 118.576C95.2519 119.656 94.5319 120.4 93.1399 120.4H91.0039ZM101.055 115.312C101.055 120.352 104.847 124.288 110.031 124.288C115.215 124.288 119.007 120.352 119.007 115.312C119.007 110.392 115.215 106.552 110.031 106.552C104.847 106.552 101.055 110.392 101.055 115.312ZM105.399 115.312C105.399 112.504 107.463 110.392 110.031 110.392C112.599 110.392 114.663 112.504 114.663 115.312C114.663 118.24 112.599 120.448 110.031 120.448C107.463 120.448 105.399 118.24 105.399 115.312ZM121.679 124H125.879V118.696H128.807C132.143 118.696 134.399 116.2 134.399 112.744C134.399 109.288 132.143 106.84 128.807 106.84H121.679V124ZM125.879 115.096V110.44H128.015C129.407 110.44 130.127 111.376 130.127 112.744C130.127 114.112 129.407 115.096 127.943 115.096H125.879ZM136.679 124H147.767V120.4H140.879V117.16H146.111V113.56H140.879V110.44H147.431V106.84H136.679V124Z" fill="white"/>
</svg>
