<svg width="19" height="18" viewBox="0 0 19 18" fill="none" xmlns="http://www.w3.org/2000/svg">
<path fill-rule="evenodd" clip-rule="evenodd" d="M18.774 2.126L9.627 11.19C9.477 11.338 9.28 11.413 9.084 11.413C8.888 11.413 8.691 11.338 8.541 11.19L6.046 8.718C5.747 8.421 5.747 7.94 6.046 7.643C6.346 7.345 6.832 7.345 7.132 7.643L9.084 9.577L17.689 1.051C17.989 0.754 18.475 0.754 18.774 1.051C19.074 1.348 19.074 1.829 18.774 2.126ZM12.156 2.168C11.184 1.739 10.152 1.521 9.088 1.521C9.087 1.521 9.085 1.521 9.084 1.521C7.069 1.521 5.175 2.297 3.749 3.708C2.323 5.12 1.536 6.997 1.535 8.995C1.533 13.119 4.917 16.477 9.08 16.478C9.081 16.478 9.082 16.478 9.084 16.478C11.099 16.478 12.993 15.702 14.419 14.291C15.845 12.879 16.632 11.002 16.633 9.004V8.238C16.633 7.818 16.976 7.477 17.4 7.477C17.824 7.477 18.168 7.818 18.168 8.238V9.004C18.166 11.409 17.22 13.668 15.503 15.367C13.788 17.065 11.508 18 9.084 18C9.082 18 9.081 18 9.079 18C6.652 17.998 4.372 17.061 2.657 15.36C0.942001 13.659 -0.000999206 11.399 7.94517e-07 8.994C0.00200079 6.59 0.948001 4.331 2.664 2.632C4.38 0.934 6.66 0 9.084 0C9.086 0 9.087 0 9.089 0C10.369 0 11.612 0.262 12.781 0.779C13.168 0.95 13.342 1.399 13.17 1.783C12.997 2.166 12.544 2.339 12.156 2.168Z" fill="#5FAB00"/>
</svg>
