<svg width="110" height="110" viewBox="0 0 110 110" fill="none" xmlns="http://www.w3.org/2000/svg">
<circle cx="55" cy="55" r="55" fill="#5FAB00"/>
<path d="M42.7189 39.734H56.0329V47H63.2989V39.734H66.8689V33.644H63.2989V16.97H54.3109L42.7189 35.282V39.734ZM50.1949 33.644V33.56L54.7309 26.672C55.5709 25.412 56.2009 23.564 56.2009 23.564H56.2849C56.2849 23.564 56.0329 25.286 56.0329 26.924V33.644H50.1949Z" fill="#FFDA35"/>
<path d="M13.4156 64H15.5156V60.52H16.3796L18.1916 64H20.5436L18.0956 59.548V59.524L20.4116 55.42H18.1556L16.3796 58.732H15.5156V55.42H13.4156V64ZM20.7875 59.656C20.7875 62.176 22.6835 64.144 25.2755 64.144C27.8675 64.144 29.7635 62.176 29.7635 59.656C29.7635 57.196 27.8675 55.276 25.2755 55.276C22.6835 55.276 20.7875 57.196 20.7875 59.656ZM22.9595 59.656C22.9595 58.252 23.9915 57.196 25.2755 57.196C26.5595 57.196 27.5915 58.252 27.5915 59.656C27.5915 61.12 26.5595 62.224 25.2755 62.224C23.9915 62.224 22.9595 61.12 22.9595 59.656ZM31.0992 64H33.1992V60.64H36.3192V64H38.4192V55.42H36.3192V58.852H33.1992V55.42H31.0992V64ZM42.0764 64H44.1764V57.22H46.7804V55.42H39.4724V57.22H42.0764V64ZM47.8336 64H53.3776V62.2H49.9336V60.58H52.5496V58.78H49.9336V57.22H53.2096V55.42H47.8336V64ZM58.4917 55.036C59.7037 55.036 60.7597 54.376 60.7597 53.2V53.068H59.2357V53.212C59.2357 53.704 58.8397 53.92 58.4917 53.92C58.1317 53.92 57.7477 53.704 57.7477 53.212V53.068H56.2117V53.2C56.2117 54.376 57.2677 55.036 58.4917 55.036ZM54.7477 64H56.8597L59.2477 60.004C59.5837 59.44 59.9677 58.54 59.9677 58.54H59.9917C59.9917 58.54 59.8957 59.464 59.8957 60.004V64H61.9957V55.42H59.8717L57.4957 59.428C57.1597 59.992 56.7757 60.892 56.7757 60.892H56.7517C56.7517 60.892 56.8477 59.968 56.8477 59.428V55.42H54.7477V64ZM63.7945 64H65.8945V60.64H69.0145V64H71.1145V55.42H69.0145V58.852H65.8945V55.42H63.7945V64ZM72.9117 64H78.4557V62.2H75.0117V60.58H77.6277V58.78H75.0117V57.22H78.2877V55.42H72.9117V64ZM79.8258 64H81.9258V61.348H83.3898C85.0578 61.348 86.1858 60.1 86.1858 58.372C86.1858 56.644 85.0578 55.42 83.3898 55.42H79.8258V64ZM81.9258 59.548V57.22H82.9938C83.6898 57.22 84.0498 57.688 84.0498 58.372C84.0498 59.056 83.6898 59.548 82.9578 59.548H81.9258ZM85.9796 64H88.1396L88.6556 62.2H91.3316L91.8596 64H94.0196L91.1036 55.42H88.8956L85.9796 64ZM89.1476 60.52L89.6396 58.852C89.7956 58.312 89.9876 57.376 89.9876 57.376H90.0116C90.0116 57.376 90.2036 58.312 90.3596 58.852L90.8396 60.52H89.1476ZM18.8081 81H22.7531C24.8831 81 26.8331 80.145 26.8331 77.805C26.8331 76.86 26.3831 75.765 25.1531 75.39V75.36C25.9631 74.895 26.3981 73.98 26.3981 73.08C26.3981 71.235 24.8981 70.275 22.7531 70.275H18.8081V81ZM21.4331 74.43V72.525H22.7381C23.4431 72.525 23.7281 72.945 23.7281 73.44C23.7281 73.95 23.4431 74.43 22.7831 74.43H21.4331ZM21.4331 78.75V76.53H23.0231C23.7881 76.53 24.1481 77.025 24.1481 77.625C24.1481 78.225 23.7731 78.75 23.0081 78.75H21.4331ZM32.27 81H34.895V76.8H38.795V81H41.42V70.275H38.795V74.565H34.895V70.275H32.27V81ZM42.4965 81H45.1965L45.8415 78.75H49.1865L49.8465 81H52.5465L48.9015 70.275H46.1415L42.4965 81ZM46.4565 76.65L47.0715 74.565C47.2665 73.89 47.5065 72.72 47.5065 72.72H47.5365C47.5365 72.72 47.7765 73.89 47.9715 74.565L48.5715 76.65H46.4565ZM53.6274 81H58.0824C60.1674 81 61.5774 79.59 61.5774 77.61C61.5774 75.63 60.1674 74.19 58.0824 74.19H56.2524V72.525H60.6024V70.275H53.6274V81ZM56.2524 78.75V76.44H57.5424C58.4574 76.44 58.9074 76.935 58.9074 77.61C58.9074 78.285 58.4574 78.75 57.5874 78.75H56.2524ZM62.5346 75.57C62.5346 78.72 64.9046 81.18 68.1446 81.18C71.3846 81.18 73.7546 78.72 73.7546 75.57C73.7546 72.495 71.3846 70.095 68.1446 70.095C64.9046 70.095 62.5346 72.495 62.5346 75.57ZM65.2496 75.57C65.2496 73.815 66.5396 72.495 68.1446 72.495C69.7496 72.495 71.0396 73.815 71.0396 75.57C71.0396 77.4 69.7496 78.78 68.1446 78.78C66.5396 78.78 65.2496 77.4 65.2496 75.57ZM75.4243 81H78.0493V77.685H79.8793C81.9643 77.685 83.3743 76.125 83.3743 73.965C83.3743 71.805 81.9643 70.275 79.8793 70.275H75.4243V81ZM78.0493 75.435V72.525H79.3843C80.2543 72.525 80.7043 73.11 80.7043 73.965C80.7043 74.82 80.2543 75.435 79.3393 75.435H78.0493ZM84.7993 81H91.7293V78.75H87.4243V76.725H90.6943V74.475H87.4243V72.525H91.5193V70.275H84.7993V81Z" fill="white"/>
</svg>
